# AST/ASF file generated using VICON BodyLanguage
# -----------------------------------------------
:version 1.10
:name VICON
:units
  mass 1.0
  length 0.45
  angle deg
:documentation
   .ast/.asf automatically generated from VICON data using
   VICON BodyBuilder and BodyLanguage model FoxedUp or BRILLIANT.MOD
:root
   order TX TY TZ RX RY RZ
   axis XYZ
   position 0 0 0  
   orientation 0 0 0 
:bonedata
  begin
     id 1 
     name lhipjoint
     direction 0.537252 -0.787203 0.302774 
     length 2.29576 
     axis 0 0 0  XYZ
  end
  begin
     id 2 
     name lfemur
     direction 0.34202 -0.939693 0  
     length 7.31114  
     axis 0 0 20  XYZ
    dof rx ry rz
    limits (-160.0 20.0)
           (-70.0 70.0)
           (-60.0 70.0)
  end
  begin
     id 3 
     name ltibia
     direction 0.34202 -0.939693 0   
     length 8.36008   
     axis 0 0 20   XYZ
    dof rx
    limits (-10.0 170.0)
  end
  begin
     id 4 
     name lfoot
     direction 0.0969116 -0.266263 0.959016   
     length 2.16704   
     axis -90 7.62852e-016 20   XYZ
    dof rx rz
    limits (-45.0 90.0)
           (-70.0 20.0)
  end
  begin
     id 5 
     name ltoes
     direction 1.53563e-011 -4.21779e-011 1   
     length 1.08338   
     axis -90 7.62852e-016 20   XYZ
    dof rx
    limits (-90.0 20.0)
  end
  begin
     id 6 
     name rhipjoint
     direction -0.588228 -0.754791 0.290308   
     length 2.39434  
     axis 0 0 0  XYZ 
  end
  begin
     id 7 
     name rfemur
     direction -0.34202 -0.939693 0   
     length 7.45207   
     axis 0 0 -20   XYZ
    dof rx ry rz
    limits (-160.0 20.0)
           (-70.0 70.0)
           (-70.0 60.0)
  end
  begin
     id 8 
     name rtibia
     direction -0.34202 -0.939693 0   
     length 8.03565   
     axis 0 0 -20   XYZ
    dof rx
    limits (-10.0 170.0)
 end
 begin
     id 9 
     name rfoot
     direction -0.107009 -0.294004 0.949795   
     length 2.11509  
     axis -90 -7.62852e-016 -20   XYZ
    dof rx rz
    limits (-45.0 90.0)
           (-20.0 70.0)
  end
  begin
     id 10 
     name rtoes
     direction -1.53533e-011 -4.22004e-011 1   
     length 1.05493   
     axis -90 -7.62852e-016 -20   XYZ
    dof rx
    limits (-90.0 20.0)
  end
  begin
     id 11 
     name lowerback
     direction -0.0115208 0.997969 -0.0626515   
     length 2.03153   
     axis 0 0 0   XYZ
    dof rx ry rz
    limits (-20.0 45.0)
           (-30.0 30.0)
           (-30.0 30.0)
  end
  begin
     id 12 
     name upperback
     direction -0.00423475 0.999974 -0.00583614   
     length 2.03619   
     axis 0 0 0   XYZ
    dof rx ry rz
    limits (-20.0 45.0)
           (-30.0 30.0)
           (-30.0 30.0)
  end
  begin
     id 13 
     name thorax
     direction 0.00289429 0.999728 0.0231573   
     length 2.03921   
     axis 0 0 0   XYZ
    dof rx ry rz
    limits (-20.0 45.0)
           (-30.0 30.0)
           (-30.0 30.0)
  end
  begin
     id 14 
     name lowerneck
     direction 0.0188995 0.987777 0.154721   
     length 1.78836   
     axis 0 0 0   XYZ
    dof rx ry rz
    limits (-20.0 45.0)
           (-30.0 30.0)
           (-30.0 30.0)
  end
  begin
     id 15 
     name upperneck
     direction -0.00612612 0.992995 -0.118   
     length 1.81789   
     axis 0 0 0   XYZ
    dof rx ry rz
    limits (-20.0 45.0)
           (-30.0 30.0)
           (-30.0 30.0)
  end
  begin
     id 16
     name head
     direction -0.00420226 0.998397 -0.0564482  
     length 1.82234  
     axis 0 0 0   XYZ
    dof rx ry rz
    limits (-20.0 45.0)
           (-30.0 30.0)
           (-30.0 30.0)
  end
  begin
     id 17 
     name lclavicle
     direction 0.916488 0.396539 0.0529676  
     length 3.51732  
     axis 0 0 0   XYZ
    dof ry rz
    limits (-20.0 10.0)
           (0.0 20.0)
  end
  begin
     id 18 
     name lhumerus
     direction 1 -4.4896e-011 8.36962e-028   
     length 5.45077   
     axis 180 -30 -90   XYZ
    dof rx ry rz
    limits (-60.0 90.0)
           (-90.0 90.0)
           (-90.0 90.0)
  end
  begin
     id 19
     name lradius
     direction 1 -4.48962e-011 3.01407e-027   
     length 3.05488   
     axis 180 -30 -90   XYZ
    dof rx
    limits (-10.0 170.0)
  end
  begin
     id 20
     name lwrist
     direction 1 -4.49002e-011 4.72961e-027   
     length 1.52744   
     axis -2.72261e-015 90 90   XYZ
    dof ry
    limits (-180.0 0.0)
 end
  begin
     id 21 
     name lhand
     direction 1 -4.4899e-011 9.45681e-027   
     length 0.638818   
     axis -6.0311e-015 90 90   XYZ
    dof rx rz
    limits (-90.0 90.0)
           (-45.0 45.0)
  end
  begin
     id 22 
     name lfingers
     direction 1 -4.48871e-011 1.88632e-026   
     length 0.515032   
     axis -1.20625e-014 90 90   XYZ
    dof rx
    limits (0.0 90.0)
  end
  begin
     id 23
     name lthumb
     direction 0.707107 -6.34964e-011 0.707107   
     length 0.739485   
     axis -90 45 6.32835e-014   XYZ
    dof rx rz
    limits (-45.0 45.0)
           (-45.0 45.0)
  end
  begin
     id 24 
     name rclavicle
     direction -0.949427 0.303202 0.0815894   
     length 3.76167  
     axis 0 0 0   XYZ 
    dof ry rz
    limits (-10.0 20.0)
           (-20.0 0.0)
  end
  begin
     id 25 
     name rhumerus
     direction -1 -4.48971e-011 -6.43969e-018  
     length 4.88702   
     axis 180 30 90   XYZ
    dof rx ry rz
    limits (-90.0 60.0)
           (-90.0 90.0)
           (-90.0 90.0)
  end
  begin
     id 26 
     name rradius
     direction -1 -4.48987e-011 5.46662e-027   
     length 3.22603   
     axis 180 30 90   XYZ
    dof rx
    limits (-10.0 170.0)
  end
  begin
     id 27 
     name rwrist
     direction -1 -4.48956e-011 4.72476e-027   
     length 1.61302   
     axis -2.72261e-015 -90 -90   XYZ
    dof ry
    limits (-180.0 0.0)
  end
  begin
     id 28
     name rhand
     direction -1 -4.4889e-011 9.43571e-027   
     length 0.716293   
     axis -6.0311e-015 -90 -90   XYZ
    dof rx rz
    limits (-90.0 90.0)
           (-45.0 45.0)
  end
  begin
     id 29
     name rfingers
     direction -1 -4.48887e-011 1.88701e-026   
     length 0.577494   
     axis -1.20625e-014 -90 -90   XYZ
    dof rx
    limits (0.0 90.0)
  end
  begin
     id 30
     name rthumb
     direction -0.707107 -6.34825e-011 0.707107   
     length 0.829169   
     axis -90 -45 -6.32835e-014   XYZ
    dof rx rz
    limits (-45.0 45.0)
           (-45.0 45.0)
  end
:hierarchy
  begin
    root lhipjoint rhipjoint lowerback
    lhipjoint lfemur
    lfemur ltibia
    ltibia lfoot
    lfoot ltoes
    rhipjoint rfemur
    rfemur rtibia
    rtibia rfoot
    rfoot rtoes
    lowerback upperback
    upperback thorax
    thorax lowerneck lclavicle rclavicle
    lowerneck upperneck
    upperneck head
    lclavicle lhumerus
    lhumerus lradius
    lradius lwrist
    lwrist lhand lthumb
    lhand lfingers
    rclavicle rhumerus
    rhumerus rradius
    rradius rwrist
    rwrist rhand rthumb
    rhand rfingers
  end

#!OML:ASF F:\VICON\USERDATA\INSTALL\rory3\rory3.ASF
:FULLY-SPECIFIED
:DEGREES
172
root -1.11895 17.4144 0.614193 154.636 86.5414 92.5016
lowerback 32.267 -2.10883 -0.852883
upperback 14.5628 -1.38118 -1.4589
thorax -1.01648 -0.144708 -0.703162
lowerneck -26.3525 -0.594833 1.87634
upperneck 6.09167 -1.13862 -0.960796
head 5.95087 -0.537455 -0.743685
rclavicle -2.53699e-014 -6.17475e-015
rhumerus 77.1101 -11.058 -98.1349
rradius 36.526
rwrist -189.182
rhand -31.1738 -5.8782
rfingers 7.12502
rthumb -4.45094 -35.8114
lclavicle -2.53699e-014 -6.17475e-015
lhumerus 71.0454 16.2508 86.5235
lradius 37.3258
lwrist 211.546
lhand -34.9426 -31.3077
lfingers 7.12502
lthumb -8.08937 -1.48253
rfemur -87.4871 -8.25713 21.7007
rtibia 28.1888
rfoot -2.43414 4.40147
rtoes -2.79585
lfemur -91.1355 10.7961 -51.4256
ltibia 28.0918
lfoot 3.59069 -19.3721
ltoes -1.67584
173
root -1.12134 17.3801 0.610518 155.29 86.3941 92.491
lowerback 32.0852 -2.17965 -0.776915
upperback 14.6513 -1.4368 -1.45933
thorax -0.839376 -0.168154 -0.73149
lowerneck -26.1053 -0.610798 1.83999
upperneck 5.55539 -1.13288 -0.970537
head 5.73994 -0.535059 -0.736183
rclavicle -4.30493e-014 -4.03533e-014
rhumerus 78.22 -10.9918 -99.0501
rradius 36.008
rwrist -188.079
rhand -31.1652 -5.53191
rfingers 7.12502
rthumb -4.44269 -35.4653
lclavicle -4.30493e-014 -4.03533e-014
lhumerus 71.8746 16.3062 87.1903
lradius 37.2176
lwrist 210.558
lhand -35.8966 -31.2403
lfingers 7.12502
lthumb -9.01003 -1.4527
rfemur -88.4334 -8.43714 21.9006
rtibia 28.4684
rfoot -2.32743 4.586
rtoes -2.64705
lfemur -91.9508 10.4456 -52.1603
ltibia 28.297
lfoot 3.9706 -19.8797
ltoes -0.468195
174
root -1.11645 17.3632 0.616652 154.726 86.579 91.5624
lowerback 32.2169 -2.06571 -0.888119
upperback 14.8094 -1.30447 -1.43503
thorax -0.706052 -0.10798 -0.68173
lowerneck -26.0939 -0.593926 1.8977
upperneck 5.21131 -1.11773 -0.992025
head 5.62566 -0.526243 -0.748425
rclavicle -6.38596e-015 2.52643e-014
rhumerus 79.2618 -10.8988 -99.7281
rradius 35.6165
rwrist -187.377
rhand -31.4055 -5.71971
rfingers 7.12502
rthumb -4.67469 -35.6481
lclavicle -6.38596e-015 2.52643e-014
lhumerus 72.7776 16.3627 87.9161
lradius 37.1662
lwrist 209.611
lhand -36.7729 -31.7307
lfingers 7.12502
lthumb -9.8555 -1.98136
rfemur -89.0539 -8.32063 22.3826
rtibia 28.7982
rfoot -2.30922 4.97733
rtoes -2.81963
lfemur -92.6019 10.5673 -52.6504
ltibia 28.493
lfoot 4.31187 -20.3189
ltoes 0.779508
175
root -1.11237 17.3378 0.613348 157.146 86.5445 93.5473
lowerback 32.3173 -2.09987 -0.72024
upperback 14.9422 -1.27791 -1.39038
thorax -0.598084 -0.0855595 -0.736518
lowerneck -26.2789 -0.641096 1.88716
upperneck 5.0919 -1.17741 -0.971715
head 5.61219 -0.552617 -0.747343
rclavicle -2.45499e-014 -5.60076e-014
rhumerus 80.2672 -10.8489 -100.159
rradius 35.3362
rwrist -186.954
rhand -31.6784 -6.04144
rfingers 7.12502
rthumb -4.93816 -35.9639
lclavicle -2.45499e-014 -5.60076e-014
lhumerus 73.3418 16.0666 87.8172
lradius 36.8684
lwrist 210.646
lhand -36.0766 -31.5301
lfingers 7.12502
lthumb -9.18374 -1.75011
rfemur -89.7776 -8.45997 22.8006
rtibia 29.1914
rfoot -2.45248 5.2791
rtoes -2.61614
lfemur -93.2962 10.4885 -53.5977
ltibia 28.6764
lfoot 4.93097 -21.1871
ltoes 2.39721
176
root -1.10937 17.3043 0.606475 158.913 86.3687 94.7469
lowerback 32.2721 -2.18242 -0.594238
upperback 15.0305 -1.32823 -1.33112
thorax -0.479191 -0.104998 -0.727916
lowerneck -26.4736 -0.689853 1.81682
upperneck 5.05404 -1.21473 -1.00342
head 5.62706 -0.5744 -0.751794
rclavicle -3.45885e-014 -3.45885e-014
rhumerus 81.1732 -10.7111 -100.503
rradius 35.1141
rwrist -186.462
rhand -31.6977 -6.05368
rfingers 7.12502
rthumb -4.9568 -35.9757
lclavicle -3.45885e-014 -3.45885e-014
lhumerus 73.9578 15.8497 88.066
lradius 36.5324
lwrist 211.091
lhand -35.6572 -30.7112
lfingers 7.12502
lthumb -8.77899 -0.913765
rfemur -90.6145 -8.66846 22.8896
rtibia 29.5775
rfoot -2.57316 5.37899
rtoes -1.97392
lfemur -94.2112 10.351 -55.3237
ltibia 28.8667
lfoot 6.20163 -22.5758
ltoes 5.63274
